<svg viewBox="0 0 120 120" xmlns="http://www.w3.org/2000/svg">
  <rect width="120" height="120" rx="24" fill="#1B3328"/>
  <path d="M 21 66 A 40 40 0 0 1 99 66" fill="none" stroke="#4F7A5B" stroke-width="6" stroke-linecap="round"/>
  <path d="M 30 68.5 A 31 31 0 0 1 90 68.5" fill="none" stroke="#D9A441" stroke-width="6" stroke-linecap="round"/>
  <path d="M 39 71 A 22 22 0 0 1 81 71" fill="none" stroke="#EFEBDD" stroke-width="6" stroke-linecap="round"/>
  <path d="M 60 68
           C 47 74, 45 90, 58 103
           C 59.5 104.5, 61 104, 60.5 102
           C 74 90, 73 74, 60 68 Z"
        fill="#D9A441"/>
  <path d="M 60 71 C 58 80, 58 92, 60 100" fill="none" stroke="#B9832E" stroke-width="1.2" stroke-linecap="round" opacity="0.7"/>
  <path d="M 59 100 C 62 103, 65 105, 68 108" fill="none" stroke="#D9A441" stroke-width="3" stroke-linecap="round"/>
</svg>
